<svg xmlns="http://www.w3.org/2000/svg" width="30.002" height="30" viewBox="0 0 30.002 30">
  <g id="_003---Call" data-name="003---Call" transform="translate(0)">
    <path id="Shape" d="M13.421,17.606a12.108,12.108,0,0,1-3.656-6.874,1.028,1.028,0,0,1,.3-.861l2.317-2.316a1.034,1.034,0,0,0,.146-1.28L8.834.546A1.034,1.034,0,0,0,7.494.169L1.571,2.958A1.029,1.029,0,0,0,1,3.986c.31,2.948,1.6,10.2,8.718,17.319s14.369,8.408,17.319,8.718a1.029,1.029,0,0,0,1.028-.569l2.79-5.923a1.034,1.034,0,0,0-.375-1.338L24.752,18.5a1.034,1.034,0,0,0-1.28.145l-2.316,2.317a1.028,1.028,0,0,1-.861.3,12.108,12.108,0,0,1-6.874-3.656Z" transform="translate(-0.997 -0.029)" fill="#fff"/>
    <path id="Shape-2" data-name="Shape" d="M37.828,20.862a1.034,1.034,0,0,1-1.034-1.034,7.767,7.767,0,0,0-7.759-7.759,1.034,1.034,0,1,1,0-2.069,9.839,9.839,0,0,1,9.828,9.828A1.034,1.034,0,0,1,37.828,20.862Z" transform="translate(-14.033 -4.828)" fill="#fff"/>
    <path id="Shape-3" data-name="Shape" d="M43,16.035A1.034,1.034,0,0,1,41.966,15,12.946,12.946,0,0,0,29.034,2.069a1.034,1.034,0,1,1,0-2.069,15.017,15.017,0,0,1,15,15A1.034,1.034,0,0,1,43,16.035Z" transform="translate(-14.033)" fill="#fff"/>
  </g>
</svg>
