<svg xmlns="http://www.w3.org/2000/svg" width="29.997" height="30" viewBox="0 0 29.997 30">
  <g id="messenger" transform="translate(0)">
    <path id="Path_45703" data-name="Path 45703" d="M15.024,0a14.712,14.712,0,0,0-15,14.374,14.1,14.1,0,0,0,5,10.7v4.3a.625.625,0,0,0,.956.53l3.483-2.176a15.476,15.476,0,0,0,5.559,1.021,14.712,14.712,0,0,0,15-14.374A14.712,14.712,0,0,0,15.024,0Z" transform="translate(-0.025 0)" fill="#fff"/>
    <path id="Path_45704" data-name="Path 45704" d="M105.245,170.946a.625.625,0,0,0-.8-.175l-6.5,3.543L93.9,170.847a.625.625,0,0,0-.849.033l-7.5,7.5a.625.625,0,0,0,.741.99l6.5-3.543,4.047,3.468a.625.625,0,0,0,.849-.033l7.5-7.5A.625.625,0,0,0,105.245,170.946Z" transform="translate(-80.372 -160.694)" fill="#2196f3"/>
  </g>
</svg>
